<svg width="21" height="20" viewBox="0 0 21 20" fill="none" xmlns="http://www.w3.org/2000/svg">
    <path d="M18 4.98332C15.225 4.70832 12.4333 4.56665 9.65 4.56665C8 4.56665 6.35 4.64998 4.7 4.81665L3 4.98332" fill="#F8F8F8"/>
    <path d="M18 4.98332C15.225 4.70832 12.4333 4.56665 9.65 4.56665C8 4.56665 6.35 4.64998 4.7 4.81665L3 4.98332" stroke="#F8F8F8" stroke-width="1.5" stroke-linecap="round" stroke-linejoin="round"/>
    <path d="M7.58594 4.14175L7.76927 3.05008C7.9026 2.25841 8.0026 1.66675 9.41094 1.66675H11.5943C13.0026 1.66675 13.1109 2.29175 13.2359 3.05841L13.4193 4.14175" stroke="#F8F8F8" stroke-width="1.5" stroke-linecap="round" stroke-linejoin="round"/>
    <path d="M16.2057 7.6167L15.6641 16.0084C15.5724 17.3167 15.4974 18.3334 13.1724 18.3334H7.8224C5.4974 18.3334 5.4224 17.3167 5.33073 16.0084L4.78906 7.6167" stroke="#F8F8F8" stroke-width="1.5" stroke-linecap="round" stroke-linejoin="round"/>
    <path d="M9.10938 13.75H11.8844" stroke="#F8F8F8" stroke-width="1.5" stroke-linecap="round" stroke-linejoin="round"/>
    <path d="M8.41406 10.4167H12.5807" stroke="#F8F8F8" stroke-width="1.5" stroke-linecap="round" stroke-linejoin="round"/>
</svg>
